<svg xmlns="http://www.w3.org/2000/svg" width="55.978" height="55.996" viewBox="0 0 55.978 55.996">
  <g id="https:_www.flaticon.com_free-icon_brochure_151398" data-name="https://www.flaticon.com/free-icon/brochure_151398" transform="translate(-0.079 0)">
    <path id="Path_365" data-name="Path 365" d="M54.447.092,28.068,9.984,1.689.092A1.239,1.239,0,0,0,.079,1.207V44.754a1.192,1.192,0,0,0,.772,1.116l26.8,10.049a1.176,1.176,0,0,0,.837,0l26.8-10.049a1.192,1.192,0,0,0,.772-1.116V1.207A1.189,1.189,0,0,0,54.447.092Zm-.772,29.786-2.081.688V10.132a1.192,1.192,0,0,0-1.61-1.115l-17.872,6.7a1.192,1.192,0,0,0-.772,1.115V37.257l-2.081.688V12.081L53.675,2.925V29.878Zm-4.463,1.474L33.722,36.47V17.66l15.49-5.809v19.5ZM26.877,53.084,2.461,43.928v-41l24.416,9.156v41Zm2.382,0V40.454l24.416-8.067V43.928Z" fill="#ff3414"/>
    <path id="Path_366" data-name="Path 366" d="M77.776,112.01l-13.822-4.669.763-2.256,13.822,4.669Zm.763,6.1-13.822-4.669-.763,2.257,13.822,4.669Zm0,8.358L64.717,121.8l-.763,2.256,13.822,4.669Zm0,8.358-13.822-4.669-.763,2.256,13.822,4.669Z" transform="translate(-56.578 -93.08)" fill="#ff3414"/>
  </g>
</svg>
